PathFileType	4	(X/Y/Z)	C:/Users/opensim2020/Desktop/walking_exp_matlab/subject03_walking05_straight_03.trc	
DataRate	CameraRate	NumFrames	NumMarkers	Units	OrigDataRate	OrigDataStartFrame	OrigNumFrames	
100.00	100.00	4	45	mm	100.00	2220	293	
Frame#	Time	LFHD			RFHD			LBHD			RBHD			C7			T10			CLAV			STRN			RBAK			LSHO			LUPA			LELB			LFRM			LWRA			LWRB			LFIN			RSHO			RUPA			RELB			RFRM			RWRA			RWRB			RFIN			LASI			RASI			LPSI			RPSI			LTHI			LKNE			LTIB			LANK			LHEE			LTOE			RTHI			RKNE			RTIB			RANK			RHEE			RTOE			*39			*40			*41			*42			*43			*44			
		X1	Y1	Z1	X2	Y2	Z2	X3	Y3	Z3	X4	Y4	Z4	X5	Y5	Z5	X6	Y6	Z6	X7	Y7	Z7	X8	Y8	Z8	X9	Y9	Z9	X10	Y10	Z10	X11	Y11	Z11	X12	Y12	Z12	X13	Y13	Z13	X14	Y14	Z14	X15	Y15	Z15	X16	Y16	Z16	X17	Y17	Z17	X18	Y18	Z18	X19	Y19	Z19	X20	Y20	Z20	X21	Y21	Z21	X22	Y22	Z22	X23	Y23	Z23	X24	Y24	Z24	X25	Y25	Z25	X26	Y26	Z26	X27	Y27	Z27	X28	Y28	Z28	X29	Y29	Z29	X30	Y30	Z30	X31	Y31	Z31	X32	Y32	Z32	X33	Y33	Z33	X34	Y34	Z34	X35	Y35	Z35	X36	Y36	Z36	X37	Y37	Z37	X38	Y38	Z38	X39	Y39	Z39	X40	Y40	Z40	X41	Y41	Z41	X42	Y42	Z42	X43	Y43	Z43	X44	Y44	Z44	X45	Y45	Z45	

110	1.090	-1085.36719	-552.11792	1616.45044	-953.55920	-567.15015	1629.01282	-1092.85193	-680.07379	1573.39966	-962.45380	-690.32910	1585.35571	-1028.87402	-715.13342	1420.23206	-1029.85034	-758.59827	1108.73889	-1017.36932	-596.50684	1339.64209	-1017.82135	-557.18823	1173.36902	-933.40265	-780.26593	1247.97205	-1176.48132	-626.57489	1374.76062	-1246.11096	-634.96191	1176.95349	-1258.42065	-632.09857	1053.89539	-1255.36792	-609.69257	924.99750	-1223.30859	-598.56262	805.88995	-1276.58105	-614.98920	812.03107	-1263.43152	-608.61896	727.11908	-861.91412	-649.70441	1366.65393	-790.08923	-644.35114	1143.90015	-778.52869	-624.56421	1032.01001	-778.06146	-602.53625	896.52460	-816.01178	-570.11108	802.32654	-770.05481	-598.22620	796.01233	-785.34717	-576.60114	724.04175	-1139.06433	-589.25568	941.96429	-900.75769	-607.04218	934.12964	-1100.96985	-754.12659	970.11560	-951.60016	-762.60278	969.54993	-1175.48328	-632.54156	640.30414	-1127.30908	-617.69513	463.85245	-1126.19263	-657.84314	271.81888	-1079.71692	-669.08887	64.61249	-1046.92163	-710.01111	30.64824	-1049.68408	-516.51892	29.90038	-854.33667	-641.98615	638.80536	-869.53296	-608.04663	461.88748	-866.05383	-755.34155	342.16464	-906.24725	-922.40338	205.24995	-962.15894	-971.10779	216.35048	-917.89496	-872.33875	69.72797	-1047.54846	-639.43005	1679.68945															 
111	1.100	-1085.46143	-542.67139	1616.57288	-953.58051	-557.87225	1629.04358	-1093.10986	-670.74329	1573.90601	-962.72101	-681.04407	1585.77478	-1029.52917	-706.45959	1420.61768	-1030.56970	-749.73889	1109.00891	-1017.73187	-587.86169	1339.97290	-1018.42603	-548.58221	1173.75452	-934.85144	-772.01166	1248.04919	-1176.87329	-617.66956	1375.27466	-1246.91614	-622.96704	1177.74426	-1259.22375	-617.75867	1054.83167	-1256.16553	-593.50256	926.32361	-1224.36450	-581.36011	807.38226	-1278.06531	-596.55432	813.49628	-1265.47620	-588.08539	728.91071	-862.31439	-642.05835	1366.84570	-791.10706	-638.40594	1143.74475	-779.91278	-619.06897	1031.73657	-779.48602	-598.33911	896.01819	-817.42535	-566.81818	801.51129	-771.42065	-595.15192	795.54535	-786.46722	-574.20496	723.32764	-1140.16980	-580.84546	942.12152	-902.04871	-597.79126	935.20868	-1101.24158	-745.80371	970.55621	-951.78040	-753.38800	970.14667	-1175.14612	-625.36005	640.29431	-1127.00171	-612.46527	464.06467	-1126.20386	-655.08844	271.90717	-1079.63098	-668.88422	64.82473	-1046.72961	-709.93591	30.89231	-1049.61023	-516.37457	29.88918	-854.63885	-627.88647	640.07343	-870.79968	-589.31647	463.72083	-867.62476	-734.86682	342.33527	-907.21729	-900.26746	203.43094	-962.98120	-949.88470	212.77708	-917.95013	-845.88715	69.89892	-1047.82715	-629.77203	1680.06836															 
112	1.110	-1085.53955	-533.28204	1616.59497	-953.81110	-548.35846	1628.95667	-1093.29187	-661.48730	1574.38232	-962.91321	-671.82947	1586.17383	-1030.15906	-697.95166	1420.90381	-1031.32019	-740.93213	1109.21326	-1018.10834	-579.35760	1340.21558	-1019.06268	-539.98077	1174.11340	-936.09991	-763.91095	1248.15955	-1177.24695	-608.82788	1375.81201	-1247.52844	-611.36078	1178.71277	-1260.07275	-603.39001	1055.91345	-1256.92712	-577.21381	927.86859	-1225.35107	-564.03333	809.04559	-1279.29810	-578.13867	815.14484	-1267.44666	-567.26801	731.09174	-862.80127	-634.33588	1366.96326	-792.05115	-632.58801	1143.70154	-781.14075	-613.74988	1031.55054	-780.77722	-594.31323	895.65790	-818.63989	-563.60193	800.82953	-772.74640	-592.15851	795.21136	-787.58148	-571.49780	722.90521	-1141.27502	-572.49066	942.07922	-903.28827	-588.85638	936.02045	-1101.46008	-736.77802	970.41577	-951.99042	-744.22113	970.71649	-1175.25903	-618.80487	640.06036	-1127.12488	-607.66693	463.70422	-1126.35559	-652.38354	271.98001	-1079.61108	-668.68622	65.00721	-1046.85730	-709.97186	31.20627	-1049.45642	-516.33051	29.80857	-855.72430	-612.37097	640.97308	-872.21539	-570.93158	465.69690	-869.03400	-714.19440	341.95953	-908.31470	-877.16901	200.37611	-963.96918	-928.06451	208.13008	-918.48340	-818.46045	69.39491	-1047.64868	-620.23859	1680.16687															 
113	1.120	-1085.57166	-523.79974	1616.54175	-953.78033	-538.96100	1628.79138	-1093.70752	-652.19598	1574.93250	-963.07153	-662.55243	1586.51917	-1030.82898	-689.46680	1421.15515	-1031.95593	-732.19440	1109.30640	-1018.41089	-570.88715	1340.46936	-1019.74701	-531.40143	1174.41284	-937.26953	-755.71265	1248.26086	-1177.60107	-600.20209	1376.44763	-1248.31104	-599.82678	1179.69836	-1260.89929	-589.42700	1057.29968	-1257.68640	-561.10468	929.55420	-1226.56580	-546.39154	810.99805	-1280.46680	-559.59833	817.09546	-1269.23169	-546.41760	733.56738	-863.19336	-626.76819	1367.19617	-792.95166	-626.76825	1143.67920	-782.24939	-608.53876	1031.44507	-782.00439	-590.22754	895.40167	-819.73889	-560.22369	800.29639	-774.03174	-589.00269	794.95038	-788.58191	-568.61511	722.51611	-1142.36719	-564.03394	941.99182	-904.14117	-579.49933	936.92401	-1101.67798	-728.06482	970.38202	-952.20782	-735.09106	971.22766	-1175.47144	-612.52350	639.77771	-1127.43188	-602.99640	463.46078	-1126.64856	-649.76013	272.01172	-1079.74792	-668.34253	65.22467	-1047.18176	-710.04987	31.48700	-1049.44165	-516.19958	29.77987	-856.66455	-597.89703	642.18542	-873.86060	-552.95996	467.81229	-870.42249	-693.39618	341.04922	-909.33807	-853.79248	196.40263	-964.68671	-905.39490	202.25975	-919.16071	-789.73511	68.42462	-1047.77539	-610.48291	1680.47595															 
